<svg width="27" height="13" viewBox="0 0 27 13" fill="none" xmlns="http://www.w3.org/2000/svg">
<path d="M0.589922 6.514C0.589922 6.29 0.608589 6.052 0.645922 5.8C0.692589 5.53867 0.757922 5.26333 0.841922 4.974C0.935255 4.67533 1.04726 4.36267 1.17792 4.036L2.18592 4.428C2.09259 4.68933 2.00859 4.93667 1.93392 5.17C1.86859 5.40333 1.81726 5.62267 1.77992 5.828C1.75192 6.03333 1.73792 6.22933 1.73792 6.416C1.73792 6.808 1.82192 7.13933 1.98992 7.41C2.16726 7.69 2.40992 7.91867 2.71792 8.096C3.02592 8.27333 3.37592 8.404 3.76792 8.488C4.16926 8.572 4.59392 8.614 5.04192 8.614C5.58326 8.614 6.08726 8.56733 6.55392 8.474C7.02992 8.38067 7.44526 8.24533 7.79992 8.068C8.16392 7.9 8.44859 7.704 8.65392 7.48C8.85926 7.26533 8.96192 7.032 8.96192 6.78C8.96192 6.65867 8.91526 6.54667 8.82192 6.444C8.72859 6.34133 8.58859 6.24333 8.40192 6.15C8.21526 6.05667 7.99126 5.968 7.72992 5.884C7.46859 5.79067 7.16992 5.69733 6.83392 5.604L7.09992 4.442C7.58526 4.62867 8.01459 4.78733 8.38792 4.918C8.76126 5.03933 9.08792 5.13733 9.36792 5.212C9.64792 5.28667 9.89059 5.34267 10.0959 5.38C10.3013 5.408 10.4739 5.422 10.6139 5.422C10.8099 5.422 10.9499 5.478 11.0339 5.59C11.1273 5.69267 11.1739 5.81867 11.1739 5.968C11.1739 6.11733 11.1086 6.25733 10.9779 6.388C10.8473 6.50933 10.6793 6.57 10.4739 6.57C10.4179 6.57 10.3619 6.57 10.3059 6.57C10.2499 6.57 10.1893 6.57 10.1239 6.57C10.0679 6.57 10.0119 6.57 9.95592 6.57C9.97459 6.654 9.98859 6.71933 9.99792 6.766C10.0073 6.822 10.0119 6.892 10.0119 6.976C10.0119 7.32133 9.89059 7.65733 9.64792 7.984C9.41459 8.31067 9.06926 8.60467 8.61192 8.866C8.15459 9.13667 7.59926 9.35133 6.94592 9.51C6.30192 9.66867 5.56459 9.748 4.73392 9.748C3.99659 9.748 3.31059 9.62667 2.67592 9.384C2.05059 9.15067 1.54659 8.796 1.16392 8.32C0.781255 7.844 0.589922 7.242 0.589922 6.514ZM5.74192 12.394C5.54592 12.394 5.37792 12.324 5.23792 12.184C5.10726 12.0533 5.04192 11.8947 5.04192 11.708C5.04192 11.5213 5.10726 11.358 5.23792 11.218C5.37792 11.078 5.54592 11.008 5.74192 11.008C5.92859 11.008 6.08726 11.078 6.21792 11.218C6.35792 11.358 6.42792 11.5213 6.42792 11.708C6.42792 11.8947 6.35792 12.0533 6.21792 12.184C6.08726 12.324 5.92859 12.394 5.74192 12.394ZM3.82392 12.394C3.62792 12.394 3.45992 12.324 3.31992 12.184C3.18926 12.0533 3.12392 11.8947 3.12392 11.708C3.12392 11.5213 3.18926 11.358 3.31992 11.218C3.45992 11.078 3.62792 11.008 3.82392 11.008C4.01059 11.008 4.16926 11.078 4.29992 11.218C4.43992 11.358 4.50992 11.5213 4.50992 11.708C4.50992 11.8947 4.43992 12.0533 4.29992 12.184C4.16926 12.324 4.01059 12.394 3.82392 12.394ZM10.4785 6.57L10.6185 5.422C11.0758 5.422 11.4398 5.394 11.7105 5.338C11.9812 5.282 12.1772 5.17 12.2985 5.002C12.4198 4.82467 12.4805 4.56333 12.4805 4.218C12.4805 3.98467 12.4432 3.70933 12.3685 3.392C12.2938 3.06533 12.1958 2.72 12.0745 2.356C11.9532 1.992 11.8225 1.63267 11.6825 1.278L12.8165 0.858C12.9378 1.15667 13.0498 1.49733 13.1525 1.88C13.2645 2.26267 13.3578 2.64067 13.4325 3.014C13.5072 3.38733 13.5445 3.714 13.5445 3.994C13.5445 4.36733 13.5025 4.69867 13.4185 4.988C13.3438 5.268 13.2272 5.51067 13.0685 5.716C12.9098 5.912 12.7045 6.07533 12.4525 6.206C12.2098 6.32733 11.9252 6.42067 11.5985 6.486C11.2718 6.542 10.8985 6.57 10.4785 6.57ZM11.9765 9.174C11.7805 9.174 11.6125 9.104 11.4725 8.964C11.3418 8.83333 11.2765 8.67467 11.2765 8.488C11.2765 8.30133 11.3418 8.138 11.4725 7.998C11.6125 7.858 11.7805 7.788 11.9765 7.788C12.1632 7.788 12.3218 7.858 12.4525 7.998C12.5925 8.138 12.6625 8.30133 12.6625 8.488C12.6625 8.67467 12.5925 8.83333 12.4525 8.964C12.3218 9.104 12.1632 9.174 11.9765 9.174ZM14.2943 9.748L13.8883 8.684C14.5696 8.46 15.1343 8.20333 15.5823 7.914C16.0396 7.62467 16.3989 7.31667 16.6603 6.99C16.9309 6.66333 17.1223 6.332 17.2343 5.996C17.3463 5.65067 17.4023 5.31933 17.4023 5.002C17.4023 4.54467 17.2996 4.08267 17.0943 3.616C16.8983 3.14 16.6789 2.692 16.4363 2.272L17.4583 1.754C17.6356 2.08067 17.7896 2.40267 17.9203 2.72C18.0603 3.03733 18.1816 3.336 18.2843 3.616C18.3963 3.896 18.4849 4.15267 18.5503 4.386C18.6809 4.78733 18.8489 5.06267 19.0543 5.212C19.2689 5.352 19.5583 5.422 19.9223 5.422C20.1183 5.422 20.2583 5.478 20.3423 5.59C20.4356 5.69267 20.4823 5.81867 20.4823 5.968C20.4823 6.11733 20.4169 6.25733 20.2863 6.388C20.1556 6.50933 19.9876 6.57 19.7823 6.57C19.3716 6.57 19.0356 6.5 18.7743 6.36C18.5223 6.21067 18.3309 6.01933 18.2003 5.786C18.0696 5.54333 17.9809 5.29133 17.9343 5.03L18.3823 5.282C18.3823 5.898 18.2423 6.458 17.9623 6.962C17.6916 7.47533 17.3416 7.91867 16.9123 8.292C16.4829 8.67467 16.0349 8.98733 15.5683 9.23C15.1016 9.47267 14.6769 9.64533 14.2943 9.748ZM19.7891 6.57L19.9291 5.422C20.5171 5.422 20.9697 5.41733 21.2871 5.408C21.6137 5.39867 21.8517 5.38933 22.0011 5.38C22.1504 5.36133 22.2531 5.352 22.3091 5.352C22.1411 5.25867 21.9451 5.114 21.7211 4.918C21.4971 4.71267 21.3011 4.456 21.1331 4.148C20.9651 3.83067 20.8811 3.45733 20.8811 3.028C20.8811 2.496 21.0024 2.02933 21.2451 1.628C21.4971 1.22667 21.8377 0.914 22.2671 0.69C22.7057 0.466 23.2051 0.354 23.7651 0.354C23.9797 0.354 24.2084 0.372666 24.4511 0.41C24.6937 0.447333 24.9271 0.503333 25.1511 0.578L24.9131 1.656C24.7264 1.60933 24.5304 1.572 24.3251 1.544C24.1197 1.516 23.9331 1.502 23.7651 1.502C23.4291 1.502 23.1304 1.56733 22.8691 1.698C22.6077 1.81933 22.4024 1.992 22.2531 2.216C22.1037 2.44 22.0291 2.71067 22.0291 3.028C22.0291 3.27067 22.0804 3.49467 22.1831 3.7C22.2857 3.896 22.4211 4.07333 22.5891 4.232C22.7571 4.39067 22.9437 4.52133 23.1491 4.624C23.3544 4.72667 23.5551 4.806 23.7511 4.862C23.9564 4.918 24.1384 4.94133 24.2971 4.932C24.4091 4.89467 24.5117 4.862 24.6051 4.834C24.6984 4.806 24.8011 4.77333 24.9131 4.736C25.0344 4.68933 25.1791 4.62867 25.3471 4.554C25.5244 4.47933 25.7484 4.38133 26.0191 4.26L26.4111 5.282C25.7857 5.534 25.1464 5.758 24.4931 5.954C23.8491 6.15 23.1444 6.304 22.3791 6.416C21.6231 6.51867 20.7597 6.57 19.7891 6.57Z" fill="#293462"/>
</svg>
