<svg width="24" height="24" viewBox="0 0 24 24" fill="none" xmlns="http://www.w3.org/2000/svg">
<g clip-path="url(#clip0_662_348)">
<path d="M10.9511 11.8041H15.136M10.9511 14.594H15.136M16.5309 18.0814H9.5561C8.78568 18.0814 8.16113 17.4569 8.16113 16.6865V6.9217C8.16113 6.15128 8.78568 5.52673 9.5561 5.52673H13.4521C13.6371 5.52673 13.8145 5.60022 13.9453 5.73102L17.7216 9.50735C17.8524 9.63815 17.9259 9.81556 17.9259 10.0005V16.6865C17.9259 17.4569 17.3014 18.0814 16.5309 18.0814Z" stroke="#293462" stroke-width="1.5" stroke-linecap="round" stroke-linejoin="round"/>
<path d="M5.68598 16.2117H12.6608C13.4312 16.2117 14.0558 15.5871 14.0558 14.8167V8.13079C14.0558 7.94581 13.9823 7.7684 13.8515 7.6376L10.0752 3.86127C9.94437 3.73047 9.76696 3.65698 9.58198 3.65698H5.68598C4.91556 3.65698 4.29102 4.28153 4.29102 5.05195V14.8167C4.29102 15.5871 4.91556 16.2117 5.68598 16.2117Z" fill="#D4D6E0"/>
<path d="M7.08095 9.93434H11.2659M7.08095 12.7243H11.2659M12.6608 16.2117H5.68598C4.91556 16.2117 4.29102 15.5871 4.29102 14.8167V5.05195C4.29102 4.28153 4.91556 3.65698 5.68598 3.65698H9.58198C9.76696 3.65698 9.94437 3.73047 10.0752 3.86127L13.8515 7.6376C13.9823 7.7684 14.0558 7.94581 14.0558 8.13079V14.8167C14.0558 15.5871 13.4312 16.2117 12.6608 16.2117Z" stroke="#293462" stroke-width="1.5" stroke-linecap="round" stroke-linejoin="round"/>
</g>
<defs>
<clipPath id="clip0_662_348">
<rect width="24" height="24" fill="white"/>
</clipPath>
</defs>
</svg>
