<svg width="19" height="18" viewBox="0 0 19 18" fill="none" xmlns="http://www.w3.org/2000/svg">
<g clip-path="url(#clip0_20_31)">
<path fill-rule="evenodd" clip-rule="evenodd" d="M18.4733 9.20456C18.4733 8.56637 18.416 7.95274 18.3096 7.36365H9.83325V10.845H14.6769C14.4683 11.97 13.8342 12.9232 12.881 13.5614V15.8196H15.7896C17.4914 14.2527 18.4733 11.9455 18.4733 9.20456Z" fill="#4285F4"/>
<path fill-rule="evenodd" clip-rule="evenodd" d="M9.83325 18C12.2633 18 14.3005 17.1941 15.7896 15.8195L12.881 13.5613C12.0751 14.1013 11.0442 14.4204 9.83325 14.4204C7.48916 14.4204 5.50507 12.8372 4.79735 10.71H1.79053V13.0418C3.27144 15.9831 6.31507 18 9.83325 18Z" fill="#34A853"/>
<path fill-rule="evenodd" clip-rule="evenodd" d="M4.79734 10.71C4.61734 10.17 4.51507 9.59319 4.51507 9.00001C4.51507 8.40683 4.61734 7.83001 4.79734 7.29001V4.95819H1.79052C1.18098 6.17319 0.833252 7.54774 0.833252 9.00001C0.833252 10.4523 1.18098 11.8268 1.79052 13.0418L4.79734 10.71Z" fill="#FBBC05"/>
<path fill-rule="evenodd" clip-rule="evenodd" d="M9.83325 3.57955C11.1546 3.57955 12.341 4.03364 13.2737 4.92546L15.8551 2.34409C14.2964 0.891818 12.2592 0 9.83325 0C6.31507 0 3.27144 2.01682 1.79053 4.95818L4.79735 7.29C5.50507 5.16273 7.48916 3.57955 9.83325 3.57955Z" fill="#EA4335"/>
</g>
<defs>
<clipPath id="clip0_20_31">
<rect width="18" height="18" fill="white" transform="translate(0.833252)"/>
</clipPath>
</defs>
</svg>
