<svg width="28" height="28" viewBox="0 0 28 28" fill="none" xmlns="http://www.w3.org/2000/svg">
<path d="M19.6875 24.0625H8.3125C5.90625 24.0625 3.9375 22.0938 3.9375 19.6875V8.3125C3.9375 5.90625 5.90625 3.9375 8.3125 3.9375H19.6875C22.0938 3.9375 24.0625 5.90625 24.0625 8.3125V19.6875C24.0625 22.0938 22.0938 24.0625 19.6875 24.0625Z" fill="url(#paint0_radial_666_417)"/>
<path d="M14 7.875C16.0125 7.875 16.2313 7.875 17.0188 7.91875C17.7625 7.9625 18.1562 8.09375 18.4187 8.18125C18.7687 8.3125 19.0312 8.4875 19.2937 8.75C19.5562 9.0125 19.7313 9.275 19.8625 9.625C19.95 9.8875 20.0813 10.2813 20.125 11.025C20.125 11.7688 20.125 11.9875 20.125 14C20.125 16.0125 20.125 16.2313 20.0813 17.0188C20.0375 17.7625 19.9062 18.1562 19.8187 18.4187C19.6875 18.7687 19.5125 19.0312 19.25 19.2937C18.9875 19.5562 18.725 19.7313 18.375 19.8625C18.1125 19.95 17.7188 20.0813 16.975 20.125C16.2312 20.125 16.0125 20.125 14 20.125C11.9875 20.125 11.7688 20.125 10.9813 20.0813C10.2375 20.0375 9.84375 19.9062 9.58125 19.8187C9.23125 19.6875 8.96875 19.5125 8.70625 19.25C8.44375 18.9875 8.26875 18.725 8.1375 18.375C8.05 18.1125 7.91875 17.7188 7.875 16.975C7.875 16.2312 7.875 16.0125 7.875 14C7.875 11.9875 7.875 11.7688 7.91875 10.9813C7.9625 10.2375 8.09375 9.84375 8.18125 9.58125C8.3125 9.23125 8.4875 8.96875 8.75 8.70625C9.0125 8.44375 9.275 8.26875 9.625 8.1375C9.8875 8.05 10.2813 7.91875 11.025 7.875C11.7688 7.875 11.9875 7.875 14 7.875ZM14 6.5625C11.9875 6.5625 11.725 6.5625 10.9375 6.60625C10.15 6.65 9.625 6.78125 9.14375 6.95625C8.6625 7.13125 8.225 7.39375 7.83125 7.83125C7.4375 8.26875 7.175 8.6625 6.95625 9.14375C6.78125 9.625 6.65 10.15 6.60625 10.9375C6.5625 11.725 6.5625 11.9875 6.5625 14C6.5625 16.0125 6.5625 16.275 6.60625 17.0625C6.65 17.85 6.78125 18.375 6.95625 18.8562C7.13125 19.3375 7.39375 19.775 7.83125 20.1687C8.225 20.5625 8.6625 20.825 9.14375 21.0437C9.625 21.2187 10.15 21.35 10.9375 21.3938C11.725 21.4375 11.9875 21.4375 14 21.4375C16.0125 21.4375 16.275 21.4375 17.0625 21.3938C17.85 21.35 18.375 21.2187 18.8562 21.0437C19.3375 20.8687 19.775 20.6062 20.1687 20.1687C20.5625 19.775 20.825 19.3375 21.0437 18.8562C21.2187 18.375 21.35 17.85 21.3938 17.0625C21.4375 16.275 21.4375 16.0125 21.4375 14C21.4375 11.9875 21.4375 11.725 21.3938 10.9375C21.35 10.15 21.2187 9.625 21.0437 9.14375C20.8687 8.6625 20.6062 8.225 20.1687 7.83125C19.7312 7.4375 19.3375 7.175 18.8562 6.95625C18.375 6.78125 17.85 6.65 17.0625 6.60625C16.275 6.5625 16.0125 6.5625 14 6.5625Z" fill="white"/>
<path d="M14 10.0625C11.8125 10.0625 10.0625 11.8125 10.0625 14C10.0625 16.1875 11.8125 17.9375 14 17.9375C16.1875 17.9375 17.9375 16.1875 17.9375 14C17.9375 11.8125 16.1875 10.0625 14 10.0625ZM14 16.625C12.5563 16.625 11.375 15.4437 11.375 14C11.375 12.5563 12.5563 11.375 14 11.375C15.4437 11.375 16.625 12.5563 16.625 14C16.625 15.4437 15.4437 16.625 14 16.625Z" fill="white"/>
<path d="M17.9375 10.9375C18.4207 10.9375 18.8125 10.5457 18.8125 10.0625C18.8125 9.57925 18.4207 9.1875 17.9375 9.1875C17.4543 9.1875 17.0625 9.57925 17.0625 10.0625C17.0625 10.5457 17.4543 10.9375 17.9375 10.9375Z" fill="white"/>
<defs>
<radialGradient id="paint0_radial_666_417" cx="0" cy="0" r="1" gradientUnits="userSpaceOnUse" gradientTransform="translate(8.09766 28.1293) rotate(-49.945) scale(30.4699 20.128)">
<stop offset="0.073" stop-color="#EACC7B"/>
<stop offset="0.184" stop-color="#ECAA59"/>
<stop offset="0.307" stop-color="#EF802E"/>
<stop offset="0.358" stop-color="#EF6D3A"/>
<stop offset="0.46" stop-color="#F04B50"/>
<stop offset="0.516" stop-color="#F03E58"/>
<stop offset="0.689" stop-color="#DB359E"/>
<stop offset="0.724" stop-color="#CE37A4"/>
<stop offset="0.789" stop-color="#AC3CB4"/>
<stop offset="0.877" stop-color="#7544CF"/>
<stop offset="0.98" stop-color="#2B4FF2"/>
</radialGradient>
</defs>
</svg>
