<svg width="18" height="17" viewBox="0 0 18 17" fill="none" xmlns="http://www.w3.org/2000/svg">
<path d="M6.16113 14.2383H2.69673C1.92631 14.2383 1.30176 13.6138 1.30176 12.8433V3.07856C1.30176 2.30814 1.92631 1.68359 2.69673 1.68359H6.59272C6.77771 1.68359 6.95511 1.75708 7.08592 1.88788L10.8622 5.66421M4.09169 7.96095H8.2766M4.09169 10.7509H8.2766" stroke="#293462" stroke-width="1.5" stroke-linecap="round" stroke-linejoin="round"/>
<path d="M12.3721 7.76579C12.6686 7.19994 13.3678 6.98166 13.9336 7.27823C14.4994 7.5748 14.7177 8.27393 14.4212 8.83977L13.282 11.0132C12.9855 11.579 12.2863 11.7973 11.7205 11.5007C11.4376 11.3524 11.088 11.4616 10.9397 11.7445C10.7914 12.0274 10.9006 12.377 11.1835 12.5253C12.3152 13.1184 13.7134 12.6819 14.3066 11.5502L15.4457 9.37676C16.0389 8.24507 15.6023 6.84682 14.4706 6.25368C13.3389 5.66053 11.9406 6.09711 11.3475 7.2288L10.7779 8.3155C10.6296 8.59842 10.7388 8.94798 11.0217 9.09627C11.3046 9.24456 11.6542 9.13541 11.8025 8.85249L12.3721 7.76579Z" fill="#293462"/>
<path d="M10.4735 11.3881C10.7701 10.8223 11.4692 10.604 12.0351 10.9006C12.318 11.0488 12.6675 10.9397 12.8158 10.6568C12.9641 10.3739 12.855 10.0243 12.572 9.87601C11.4404 9.28287 10.0421 9.71944 9.44896 10.8511L8.30983 13.0245C7.71668 14.1562 8.15326 15.5545 9.28495 16.1476C10.4166 16.7408 11.8149 16.3042 12.408 15.1725L12.9776 14.0858C13.1259 13.8029 13.0167 13.4533 12.7338 13.305C12.4509 13.1567 12.1013 13.2659 11.953 13.5488L11.3835 14.6355C11.0869 15.2014 10.3878 15.4196 9.82194 15.1231C9.25609 14.8265 9.03781 14.1274 9.33438 13.5615L10.4735 11.3881Z" fill="#293462"/>
</svg>
