<svg width="69" height="63" viewBox="0 0 69 63" fill="none" xmlns="http://www.w3.org/2000/svg">
<path fill-rule="evenodd" clip-rule="evenodd" d="M31.3611 43.0855C31.3611 43.0855 38.0126 38.0706 34.5002 31.976L28.4292 21.44C27.0421 19.0332 26.0106 16.816 26.1201 14.3304C26.3332 9.29199 30.6393 5.1932 35.7036 5.1932C36.1499 5.1932 36.5832 5.22382 37.0106 5.28505H37.0353C39.1489 5.62652 41.1824 6.61677 42.7272 8.3088C46.7153 12.6819 46.9838 20.4568 37.4192 25.4352L40.6867 30.9257C41.8783 30.3511 42.9533 29.7047 43.9 28.977C57.1477 18.8448 48.7253 -3.10092 31.9227 0.367917C18.3335 3.17737 15.1696 16.2662 22.2239 27.4746L31.3611 43.0855Z" fill="#F7D716"/>
<path fill-rule="evenodd" clip-rule="evenodd" d="M35.7037 20.1623C38.6969 20.1623 41.1272 17.732 41.1272 14.7389C41.1272 11.7458 38.6969 9.30957 35.7037 9.30957C32.7106 9.30957 30.2803 11.7399 30.2803 14.7389C30.2803 17.7379 32.7047 20.1623 35.7037 20.1623Z" fill="#293462"/>
<path d="M6.68805 57.6955H4.3331L3.56186 62.0286H0L2.51273 47.7811H8.54846C10.0391 47.7811 11.1012 48.1238 11.7347 48.8102C12.1963 49.3377 12.4271 50.0101 12.4271 50.8284C12.4271 51.1051 12.4 51.396 12.3482 51.6986L11.9525 53.9346C11.7547 55.0297 11.1742 55.9304 10.2111 56.6357C9.24788 57.341 8.07394 57.6943 6.68923 57.6943L6.68805 57.6955ZM7.30152 50.8685H5.52L4.8665 54.6081H6.628C7.7101 54.6081 8.33652 54.1265 8.50843 53.1634L8.64737 52.3521C8.67327 52.2332 8.6874 52.0754 8.6874 51.8776C8.6874 51.6797 8.5885 51.4619 8.39068 51.2241C8.19287 50.9862 7.8302 50.8685 7.30269 50.8685H7.30152Z" fill="#293462"/>
<path d="M18.6995 47.7821L16.2057 62.0295H12.6238L15.1365 47.7821H18.6984H18.6995Z" fill="#293462"/>
<path d="M32.491 47.7821L29.9971 62.0295H26.4153L23.9214 54.2335L22.5755 62.0295H18.9937L21.5064 47.7821H25.1872L27.641 55.0636L28.9268 47.7821H32.4887H32.491Z" fill="#293462"/>
<path d="M36.5676 57.9731C36.5676 58.8833 37.2234 59.339 38.5363 59.339C39.8492 59.339 40.505 58.9304 40.505 58.112C40.505 57.6764 40.2801 57.3208 39.8327 57.0429C39.3841 56.7662 38.8401 56.5354 38.2007 56.3505C37.5613 56.1657 36.9208 55.9514 36.2814 55.7076C35.6421 55.4639 35.0969 55.0812 34.6494 54.5596C34.2008 54.0392 33.9771 53.3892 33.9771 52.6109C33.9771 49.2998 36.1072 47.6443 40.3684 47.6443C41.9251 47.6443 43.1025 47.9387 43.9009 48.525C44.6992 49.1126 45.0984 49.9262 45.0984 50.9683C45.0984 51.351 45.0489 51.7172 44.95 52.0669C44.8511 52.4166 44.7486 52.6639 44.6438 52.8087L44.4849 53.0465H40.9831C41.2727 52.7439 41.4187 52.3612 41.4187 51.8985C41.4187 51.0413 40.8583 50.6127 39.7361 50.6127C38.3243 50.6127 37.619 51.0613 37.619 51.9586C37.619 52.4072 37.8428 52.7628 38.2914 53.0265C38.74 53.2903 39.284 53.4987 39.9234 53.6494C40.5627 53.8013 41.2068 53.9897 41.8521 54.2134C42.4985 54.4383 43.046 54.8104 43.4946 55.3308C43.9432 55.8525 44.167 56.5283 44.167 57.3596C44.167 59.0352 43.6654 60.2786 42.6633 61.0899C41.6601 61.9011 40.1176 62.3062 38.0335 62.3062C35.9494 62.3062 34.5246 61.9377 33.7593 61.1982C33.1917 60.6436 32.908 59.8794 32.908 58.9021C32.908 58.5324 32.948 58.1309 33.0269 57.6952L33.0858 57.3785H36.6476L36.6076 57.6163C36.5817 57.7482 36.5676 57.8671 36.5676 57.9731Z" fill="#293462"/>
<path d="M52.5563 62.0295L52.6753 58.9234H49.3701L48.401 62.0295H44.6213L49.7068 47.7821H56.2371L56.316 62.0295H52.5563ZM51.7451 51.2451L50.1814 56.2705H52.7742L52.992 51.2451H51.7451Z" fill="#293462"/>
<path d="M65.2404 62.0295L65.3593 58.9234H62.0542L61.0851 62.0295H57.3054L62.3909 47.7821H68.9212L69.0001 62.0295H65.2404ZM64.4291 51.2451L62.8655 56.2705H65.4582L65.6761 51.2451H64.4291Z" fill="#293462"/>
</svg>
